<!-- Generated by IcoMoon.io -->
<svg version="1.1" xmlns="http://www.w3.org/2000/svg" width="32" height="32" viewBox="0 0 32 32">
<path fill="#fff" d="M31.624 29.582c0.563 0.564 0.563 1.477-0 2.040-0.564 0.564-1.477 0.564-2.041 0l-13.559-13.56-13.561 13.559c-0.563 0.564-1.477 0.564-2.039 0.001-0.564-0.563-0.564-1.476-0-2.041l13.56-13.56-13.559-13.558c-0.565-0.563-0.565-1.478-0.001-2.040 0.563-0.565 1.477-0.565 2.039-0l13.561 13.559 13.559-13.559c0.564-0.564 1.477-0.564 2.041 0 0.563 0.563 0.563 1.477-0 2.040l-13.561 13.559 13.561 13.56z"></path>
</svg>
